# xmcd
#
# Track frame offsets: 
#        225
#        14013
#        30106
#        44631
#        63467
#        78568
#        92522
#        107797
#        120842
#        136133
#
# Disc length: 2044 seconds
#
# Revision: 0
# Processed by: cddbd v1.5.1PL0 Copyright (c) Steve Scherf et al.
# Submitted via: ExactAudioCopy v0.95a5
#
DISCID=7807f90a
DTITLE=Becky Hobbs - Everyday
DYEAR=1977
DGENRE=Country
TTITLE0=Everyday
TTITLE1=Safe with Me
TTITLE2=Someone To Watch Over Me
TTITLE3=Let's Make Love
TTITLE4=Gettin' To Me Again
TTITLE5=That 'I Love You, You Love Me Too' Love Song
TTITLE6=Love Enough
TTITLE7=I Don't Know Why (I Love That Guy)
TTITLE8=The Best Thing I Can Do
TTITLE9=All That I Am
EXTD=(c)1977 Tattoo Records Inc. - RCA New York\nKatalog:  BJL1-2169\n
EXTD=\nProduced 1977 by Steve Dorff\nArranged and conducted by Steve D
EXTD=orff for Hobby Horse Productions\n\n
EXTT0=Songwriter: Charles Hardin - Norman Perry
EXTT1=Songwriter: Lewis Anderson
EXTT2=Songwriter: George Gershwin - Ira Gershwin
EXTT3=Songwriter: Becky Hobbs
EXTT4=Songwriter: Steve Dorff - Larry Herbstritt - Gary Harju
EXTT5=Songwriter: Becky Hobbs - Lewis Anderson
EXTT6=Songwriter: Tim Moore
EXTT7=Songwriter: Becky Hobbs
EXTT8=Songwriter: Lewis Anderson
EXTT9=Songwriter: Becky Hobbs - Lewis Anderson
PLAYORDER=
